<svg aria-hidden="true" style="width:0;height:0;position:absolute" xmlns="http://www.w3.org/2000/svg" overflow="hidden"><defs><symbol id="icon-circle" viewBox="0 0 32 32"><path d="M16 30C8.268 30 2 23.732 2 16S8.268 2 16 2s14 6.268 14 14-6.268 14-14 14zm0 2c8.837 0 16-7.163 16-16S24.837 0 16 0 0 7.163 0 16s7.163 16 16 16z"/></symbol><symbol id="icon-check2-circle" viewBox="0 0 32 32"><path d="M5 16v-.002c0-6.075 4.925-11 11-11 2.025 0 3.922.547 5.552 1.502l-.052-.028a1 1 0 0 0 1.004-1.729l-.005-.003a12.855 12.855 0 0 0-6.5-1.742c-7.18 0-13 5.82-13 13s5.82 13 13 13c7.179 0 12.999-5.819 13-12.998a1 1 0 0 0-2 0c0 6.075-4.925 11-11 11s-11-4.925-11-11z"/><path d="M30.708 6.708a1 1 0 1 0-1.416-1.416L16 18.586l-5.292-5.294a1 1 0 1 0-1.416 1.416l6 6a.998.998 0 0 0 1.416 0z"/></symbol><symbol id="icon-x" viewBox="0 0 32 32"><path d="M9.292 9.292a.998.998 0 0 1 1.416 0L16 14.586l5.292-5.294a1 1 0 1 1 1.416 1.416L17.414 16l5.294 5.292a1 1 0 1 1-1.416 1.416L16 17.414l-5.292 5.294a1 1 0 1 1-1.416-1.416L14.586 16l-5.294-5.292a.998.998 0 0 1 0-1.416z"/></symbol><symbol id="icon-trash-fill" viewBox="0 0 32 32"><path d="M5 2a2 2 0 0 0-2 2v2a2 2 0 0 0 2 2h1v18a4 4 0 0 0 4 4h12a4 4 0 0 0 4-4V8h1a2 2 0 0 0 2-2V4a2 2 0 0 0-2-2h-7a2 2 0 0 0-2-2h-4a2 2 0 0 0-2 2zm6 8a1 1 0 0 1 1 1v14a1 1 0 0 1-2 0V11a1 1 0 0 1 1-1zm5 0a1 1 0 0 1 1 1v14a1 1 0 0 1-2 0V11a1 1 0 0 1 1-1zm6 1v14a1 1 0 0 1-2 0V11a1 1 0 0 1 2 0z"/></symbol><symbol id="icon-pencil-fill" viewBox="0 0 32 32"><path d="M25.708.292a.997.997 0 0 0-1.414 0L21 3.586 28.414 11l3.294-3.292a.998.998 0 0 0 0-1.416zM27 12.414 19.586 5l-13 13H7a1 1 0 0 1 1 1v1h1a1 1 0 0 1 1 1v1h1a1 1 0 0 1 1 1v1h1a1 1 0 0 1 1 1v.414zM12.064 27.35A.982.982 0 0 1 12 27v-1h-1a1 1 0 0 1-1-1v-1H9a1 1 0 0 1-1-1v-1H7a1 1 0 0 1-1-1v-1H5c-.126 0-.246-.024-.357-.066l.007.002-.358.356a1.006 1.006 0 0 0-.218.329l-.002.007-4 10a1 1 0 0 0 1.306 1.298l-.007.002 10-4a1 1 0 0 0 .336-.22z"/></symbol><symbol id="icon-list" viewBox="0 0 32 32"><path d="M5 24a1 1 0 0 1 1-1h20a1 1 0 0 1 0 2H6a1 1 0 0 1-1-1zm0-8a1 1 0 0 1 1-1h20a1 1 0 0 1 0 2H6a1 1 0 0 1-1-1zm0-8a1 1 0 0 1 1-1h20a1 1 0 0 1 0 2H6a1 1 0 0 1-1-1z"/></symbol></defs></svg>